<?xml version="1.0" encoding="utf-8"?>
<!-- Generator: Adobe Illustrator 28.0.0, SVG Export Plug-In . SVG Version: 6.00 Build 0)  -->
<svg version="1.1" id="Layer_1" xmlns="http://www.w3.org/2000/svg" xmlns:xlink="http://www.w3.org/1999/xlink" x="0px" y="0px"
	 viewBox="0 0 15.1 18.1" style="enable-background:new 0 0 15.1 18.1;" xml:space="preserve">
<style type="text/css">
	.st0{fill-rule:evenodd;clip-rule:evenodd;}
	.st1{fill-rule:evenodd;clip-rule:evenodd;fill:#FFFFFF;}
</style>
<g transform="translate(9 8)">
	<path class="st0" d="M-5.2,5.5C-5,5.6-4.9,5.7-4.6,6C-4.3,6.3-4.1,6.4-4,6.5c0.1,0,0.1,0.2,0.1,0.4c0,0.2,0,0.3,0,0.5
		c0,0.1,0,0.1,0,0.1C-3.9,7.8-3.8,8-3.5,8c0.2,0,0.4,0,0.8,0c0.1,0,0.1,0,0.2,0c1.2,0,1.8,0,2.2,0C0.1,7.9,0.6,7.4,1,6.7
		C1.3,7.3,1.8,7.9,2.3,8c0.2,0,0.3,0,0.6,0C3,8,3.2,8,3.3,8c0.1,0,0.2,0,0.3,0c0.2,0,0.4-0.3,0.3-0.5c0,0,0-0.1-0.1-0.2
		c0-0.1,0-0.3-0.1-0.4c0-0.1,0-0.1,0-0.2c0-0.1,0-0.2,0-0.3c0,0,0,0,0-0.1c0-0.1,0-0.3,0.1-0.5c0-0.1,0.1-0.4,0.3-0.6
		C4.3,5,4.4,4.9,4.5,4.8c0.1-0.2,0.3-0.4,0.4-0.5C4.9,4.2,5,4.1,5,4.1C5.3,3.7,5.6,3,5.8,2.6C5.9,2.2,6,1.5,6,0.8c0-0.4,0-0.7,0-1.2
		c0-0.1,0-0.1,0-0.2c0-0.1,0-0.2,0-0.2c0-0.2,0-0.3,0-0.7C6-2.4,5.6-2.9,4.9-3C4.3-3.1,3.7-2.6,3.7-2.6S3.5-3.1,3.4-3.3
		C3.2-3.6,2.8-3.9,2.5-4C2.2-4,1.8-4,1.4-4C1.1-3.9,0.7-3.6,0.6-3.3c-0.1,0.2,0,0-0.1-0.2c-0.2-0.3-0.6-0.6-1-0.7
		c-0.3-0.1-0.7,0-1.1,0.1C-2.2-4-2.2-3.7-2.2-3.8c-0.1-0.3-0.1-0.3-0.1-0.6c-0.1-0.9-0.3-1.5-0.5-2.1c0,0-0.1-0.2-0.1-0.3
		C-3.1-6.8-3.2-6.9-3.2-7C-3.4-7.4-3.7-7.7-4-7.9C-4.6-8.1-5.4-8-5.8-7.5c-0.4,0.4-0.4,1.2-0.4,2.1c0,0.4,0.2,1,0.3,1.5
		c0,0.2,0.1,0.3,0.1,0.6c0,0,0,0,0,0.1C-5.6-3-5.6-2.8-5.5-2.6c0,0,0.1,0.3,0.1,0.4c0,0,0,0,0,0.1c0,0.2,0.1,0.3,0.1,0.6
		c0,0.2,0.1,0.3,0.1,0.5C-5-0.6-5-0.7-5.1-0.8C-5.2-0.8-5.2-0.9-5.3-1c-0.1-0.1-0.2-0.2-0.3-0.3C-6.2-1.8-6.6-2-7.1-2
		C-8-2.1-8.8-1.5-9-0.7C-9-0.2-9,0.1-8.8,0.5c0.1,0.2,0.4,0.5,0.8,1c0,0,0,0,0.1,0.1c0.5,0.6,0.6,0.7,0.7,0.9C-7,3-6.2,4.3-6,4.5
		L-5.2,5.5z"/>
	<path class="st1" d="M-7.4,1.2C-7.4,1.1-7.4,1.1-7.4,1.2c-0.4-0.5-0.6-0.8-0.7-1c-0.2-0.3-0.2-0.4-0.1-0.7c0.1-0.4,0.5-0.8,1-0.7
		c0.3,0,0.6,0.2,1.2,0.6c0.1,0,0.1,0.1,0.2,0.2c0,0,0.1,0.1,0.1,0.2c0.1,0.1,0.3,0.4,0.3,0.4c0.1,0.1,0.1,0.1,0.1,0.2
		C-5.1,0.4-5.1,0.5-5,0.6c0,0,0.2,0.3,0.3,0.3c0.3,0.3,0.7,0,0.7-0.3c0-0.1,0-0.1,0-0.2c-0.1-0.8-0.2-1.1-0.2-1.6
		c0-0.2-0.1-0.4-0.1-0.5C-4.6-2-4.6-2.2-4.6-2.3c0,0,0,0,0-0.1c0-0.1-0.1-0.5-0.1-0.4C-4.8-3-4.9-3.2-4.9-3.4c0,0,0,0,0-0.1
		C-5-3.8-5.1-3.9-5.1-4.1c-0.1-0.5-0.2-1.1-0.3-1.4c-0.1-0.7,0-1.3,0.2-1.6C-5-7.2-4.6-7.3-4.3-7.2C-4.2-7.1-4-6.9-3.9-6.7
		c0.1,0.1,0.1,0.2,0.2,0.3c0,0.1,0.1,0.3,0.1,0.3c0.2,0.5,0.4,1,0.5,1.9C-3.1-4-3-3.7-2.9-3.3c0,0.1,0,0.1,0,0.2
		c0.3,1.6,0.3,1.5,0.3,1.6c0,0.5,0.7,0.5,0.7,0c0-0.2,0-0.3,0-0.7c0-0.1,0-0.1,0-0.1c0-0.4,0-0.6,0-0.7c0-0.2,0.2-0.4,0.4-0.5
		c0.2-0.1,0.5-0.1,0.7,0c0.2,0,0.4,0.2,0.5,0.3C-0.1-3-0.1-2.8,0-2.5c0,0.2,0.1,0.5,0.1,0.7c0,0.1,0,0.1,0,0.2c0,0,0,0,0,0.1
		c0,0,0,0,0,0c0,0,0,0,0,0.1c0,0.1,0,0.1,0.6,0.2c0.2-0.2,0.2-0.2,0.2-0.2c0-0.1,0-0.3,0.1-0.5c0-0.2,0-0.2,0-0.3
		C1-2.6,1-2.8,1.1-2.9C1.2-3,1.4-3.2,1.5-3.2c0.3,0,0.6-0.1,0.8,0c0.1,0,0.4,0.2,0.4,0.3C2.9-2.7,3-2,3.1-1.4c0,0,0,0,0.2,0.3
		c0.6-0.1,0.6-0.1,0.6-0.2c0,0,0-0.1,0-0.2c0-0.2,0.1-0.3,0.1-0.4C4-1.9,4-1.9,4.1-2c0.1-0.2,0.4-0.3,0.7-0.3c0.3,0,0.5,0.3,0.5,0.7
		c0,0.4,0,0.5,0,0.7c0,0.1,0,0.1,0,0.2c0,0.1,0,0.1,0,0.2c0,0.5,0,0.8,0,1.2C5.2,1.4,5.1,2,5,2.4c-0.1,0.3-0.4,1-0.6,1.3
		c0,0-0.1,0.1-0.2,0.2C4.1,4,4,4.2,3.8,4.4C3.8,4.5,3.7,4.6,3.6,4.7C3.4,5,3.2,5.3,3.2,5.6C3.1,5.9,3.1,6.1,3.1,6.3
		c0,0.1,0,0.1,0,0.1c0,0.1,0,0.2,0,0.3c0,0.1,0,0.2,0,0.3c0,0.1,0,0.3,0,0.3s-0.1,0-0.3,0c-0.2,0-0.3,0-0.4,0
		c-0.1,0-0.5-0.5-0.7-0.9c-0.3-0.6-1-0.5-1.3,0C0.1,6.8-0.3,7.2-0.4,7.2c-0.4,0-1,0.1-2.1,0c-0.1,0-0.1,0-0.2,0
		c-0.4,0-0.4,0.1-0.4,0c0-0.2,0-0.2,0-0.4c0-0.4-0.2-0.7-0.4-0.9c-0.1-0.1-0.3-0.2-0.6-0.5C-4.4,5.1-4.5,5-4.7,4.9L-5.5,4
		c-0.1-0.1-0.9-1.4-1.2-1.9C-6.8,1.9-6.9,1.8-7.4,1.2z M2.1,1.2v3.5c0,0.5,0.8,0.5,0.8,0V1.2C2.9,0.7,2.1,0.7,2.1,1.2z M0.1,1.2
		l0,3.5c0,0.5,0.8,0.5,0.7,0l0-3.5C0.8,0.7,0.1,0.7,0.1,1.2z M-1.1,4.6l0-3.4c0-0.5-0.8-0.5-0.7,0l0,3.4C-1.9,5.1-1.1,5.1-1.1,4.6z"
		/>
</g>
</svg>
